# xmcd
#
# Track frame offsets: 
#        150
#        26935
#        50255
#        81492
#        109578
#        140651
#
# Disc length: 2392 seconds
#
# Revision: 0
# Processed by: cddbd v1.5.2PL0 Copyright (c) Steve Scherf et al.
# Submitted via: ExactAudioCopyFreeDBPlugin 1.0
#
DISCID=50095606
DTITLE=Sonic Hub feat. Martin Fry - New Man [Single]
DYEAR=2007
DGENRE=Rock
TTITLE0=New Man (Deeks Digital Dub)
TTITLE1=New Man (Live at Psyco-Central Mix)
TTITLE2=New Man (Vocal Mix)
TTITLE3=New Man (Dirty B Mix)
TTITLE4=New Man (Qubiq Edit)
TTITLE5=New Man (Qubiq Tribal Mix)
EXTD=
EXTT0=
EXTT1=
EXTT2=
EXTT3=
EXTT4=
EXTT5=
PLAYORDER=
